HIERARCHY
ROOT Hips
{
	OFFSET 0.000000 0.000000 0.000000
	CHANNELS 6 Xposition Yposition Zposition Xrotation Yrotation Zrotation
	JOINT LeftUpLeg_virtual
	{
		OFFSET 0.000000 0.000000 0.000000
		CHANNELS 3 Xrotation Yrotation Zrotation
		JOINT LeftUpLeg
		{
			OFFSET 10.205400 -3.823500 0.155100
			CHANNELS 3 Xrotation Yrotation Zrotation
			JOINT LeftLeg
			{
				OFFSET 0.708757 -12.982077 0.567790
				CHANNELS 3 Xrotation Yrotation Zrotation
				JOINT LeftFoot
				{
					OFFSET -0.708756 -10.717838 -2.184338
					CHANNELS 3 Xrotation Yrotation Zrotation
					JOINT LeftToeBase
					{
						OFFSET 0.108149 -7.191104 7.560241
						CHANNELS 3 Xrotation Yrotation Zrotation
						JOINT LeftToe_End
						{
							OFFSET 0.070230 0.081724 4.490308
							CHANNELS 3 Xrotation Yrotation Zrotation
							End Site
							{
								OFFSET 0 0 0
							}
						}
					}
				}
			}
		}
	}
	JOINT RightUpLeg_virtual
	{
		OFFSET 0.000000 0.000000 0.000000
		CHANNELS 3 Xrotation Yrotation Zrotation
		JOINT RightUpLeg
		{
			OFFSET -10.205400 -3.823500 0.005500
			CHANNELS 3 Xrotation Yrotation Zrotation
			JOINT RightLeg
			{
				OFFSET -0.708756 -12.982134 0.610632
				CHANNELS 3 Xrotation Yrotation Zrotation
				JOINT RightFoot
				{
					OFFSET 0.708754 -10.717769 -1.945823
					CHANNELS 3 Xrotation Yrotation Zrotation
					JOINT RightToeBase
					{
						OFFSET -0.108140 -7.191069 7.372968
						CHANNELS 3 Xrotation Yrotation Zrotation
						JOINT RightToe_End
						{
							OFFSET -0.070227 0.081735 4.479403
							CHANNELS 3 Xrotation Yrotation Zrotation
							End Site
							{
								OFFSET 0 0 0
							}
						}
					}
				}
			}
		}
	}
	JOINT Spine_virtual
	{
		OFFSET 0.000000 0.000000 0.000000
		CHANNELS 3 Xrotation Yrotation Zrotation
		JOINT Spine
		{
			OFFSET 0.000000 6.876099 0.125700
			CHANNELS 3 Xrotation Yrotation Zrotation
			JOINT Spine1
			{
				OFFSET 0.000000 5.730043 0.104720
				CHANNELS 3 Xrotation Yrotation Zrotation
				JOINT Spine1_split
				{
					OFFSET 0.000000 5.730043 0.104720
					CHANNELS 3 Xrotation Yrotation Zrotation
					JOINT Spine2
					{
						OFFSET 0.000000 5.730043 0.104720
						CHANNELS 3 Xrotation Yrotation Zrotation
						JOINT Neck_virtual
						{
							OFFSET 0.000000 0.000000 0.000000
							CHANNELS 3 Xrotation Yrotation Zrotation
							JOINT Neck
							{
								OFFSET 0.000000 10.314075 0.188496
								CHANNELS 3 Xrotation Yrotation Zrotation
								JOINT Head
								{
									OFFSET 0.000000 7.643700 -2.377400
									CHANNELS 3 Xrotation Yrotation Zrotation
									JOINT HeadTop_End
									{
										OFFSET 0.000000 43.788605 -13.619600
										CHANNELS 3 Xrotation Yrotation Zrotation
										End Site
										{
											OFFSET 0 0 0
										}
									}
								}
							}
						}
						JOINT LeftShoulder_virtual
						{
							OFFSET 0.000000 0.000000 0.000000
							CHANNELS 3 Xrotation Yrotation Zrotation
							JOINT LeftShoulder
							{
								OFFSET 2.196100 4.412489 0.087492
								CHANNELS 3 Xrotation Yrotation Zrotation
								JOINT LeftShoulder_split
								{
									OFFSET 2.196100 4.412489 0.087492
									CHANNELS 3 Xrotation Yrotation Zrotation
									JOINT LeftArm
									{
										OFFSET 8.771219 -2.981674 -0.026999
										CHANNELS 3 Xrotation Yrotation Zrotation
										JOINT LeftForeArm
										{
											OFFSET 8.512804 0.000000 -0.000000
											CHANNELS 3 Xrotation Yrotation Zrotation
											JOINT LeftHand
											{
												OFFSET 18.484802 0.000000 -0.000000
												CHANNELS 3 Xrotation Yrotation Zrotation
												End Site
												{
													OFFSET 0 0 0
												}
											}
										}
									}
								}
							}
						}
						JOINT RightShoulder_virtual
						{
							OFFSET 0.000000 0.000000 0.000000
							CHANNELS 3 Xrotation Yrotation Zrotation
							JOINT RightShoulder
							{
								OFFSET -2.196100 4.412496 0.070690
								CHANNELS 3 Xrotation Yrotation Zrotation
								JOINT RightShoulder_split
								{
									OFFSET -2.196100 4.412496 0.070690
									CHANNELS 3 Xrotation Yrotation Zrotation
									JOINT RightArm
									{
										OFFSET -8.771282 -2.981682 -0.094208
										CHANNELS 3 Xrotation Yrotation Zrotation
										JOINT RightForeArm
										{
											OFFSET -8.494598 0.000000 0.000000
											CHANNELS 3 Xrotation Yrotation Zrotation
											JOINT RightHand
											{
												OFFSET -18.483803 0.000000 0.000001
												CHANNELS 3 Xrotation Yrotation Zrotation
												End Site
												{
													OFFSET 0 0 0
												}
											}
										}
									}
								}
							}
						}
					}
				}
			}
		}
	}
}
MOTION
Frames: 4
Frame Time: 0.03333333
-0.144122 32.701447 0.337566 0.000000 0.000000 0.000000 -7.096533 6.984629 -0.054046 -21.268775 11.534564 16.308479 34.169469 1.699204 6.097655 -8.133290 -11.609956 -12.167530 -1.817842 0.584650 -1.178203 0.000000 0.000000 0.000000 -7.333690 8.781346 0.084279 12.463469 -8.967527 4.255546 16.639005 -8.322772 -7.511591 -20.156522 -18.154756 6.624473 -6.674851 -0.446564 -0.558086 0.000000 0.000000 0.000000 -6.847509 7.031513 -0.307910 2.728981 0.453378 3.551441 2.253453 0.536299 2.832599 0.814497 -1.230752 -0.173465 0.000000 0.000000 0.000000 1.659884 0.770536 2.840586 12.338841 -0.777545 -1.341000 3.354550 -10.555243 -7.590761 0.000000 0.000000 0.000000 1.333889 0.787128 2.700061 2.140199 -14.727020 -11.934295 -0.463850 0.134395 -2.461447 4.334900 -3.387927 -70.093198 -1.746966 -1.306298 -0.242048 0.000000 0.000000 0.000000 1.336959 0.524718 2.882495 1.946534 8.872408 18.855454 0.924584 3.882918 -2.026454 24.988508 7.013798 59.093048 0.773363 7.063313 0.583236 0.000000 0.000000 0.000000 
-0.107616 32.778938 0.365557 0.000000 0.000000 0.000000 -6.719248 6.322103 -0.117980 -20.897623 11.936445 16.213723 33.552389 1.315020 5.912362 -8.214666 -10.628155 -12.088870 -1.729609 0.563755 -1.194376 0.000000 0.000000 0.000000 -6.973765 8.022701 0.001334 11.778972 -9.029940 3.988143 16.438112 -8.222008 -7.497558 -19.704590 -17.384805 6.723888 -6.660091 -0.372480 -0.528555 0.000000 0.000000 0.000000 -6.374996 6.504837 -0.356364 2.638560 0.322329 3.558284 2.330154 0.402675 2.819835 0.840785 -1.236988 -0.180649 0.000000 0.000000 0.000000 1.775866 0.598424 2.825966 12.140061 -0.539449 -1.226332 2.511554 -9.413097 -7.006011 0.000000 0.000000 0.000000 1.357511 0.613000 2.651908 2.148618 -14.920760 -12.225585 -0.519787 0.288466 -2.252195 4.691954 -2.329093 -70.307659 -1.666220 -1.070859 -0.138524 0.000000 0.000000 0.000000 1.439266 0.359299 2.892037 2.011774 8.208877 18.642414 0.616142 3.772715 -2.145501 27.015398 7.085861 58.241166 0.770649 6.904740 0.501061 0.000000 0.000000 0.000000 
-0.075230 32.858044 0.385464 0.000000 0.000000 0.000000 -6.343793 5.409521 -0.251870 -20.390732 12.306392 16.201123 32.943481 0.984449 5.668455 -8.496830 -9.362519 -12.009987 -1.620697 0.542181 -1.227923 0.000000 0.000000 0.000000 -6.603526 7.068045 -0.146244 10.989791 -9.137098 3.718172 16.246112 -8.110013 -7.408569 -19.236710 -16.368185 6.788381 -6.588984 -0.297610 -0.468273 0.000000 0.000000 0.000000 -5.909318 5.743632 -0.474788 2.587095 0.220610 3.568931 2.429307 0.294008 2.824090 0.876136 -1.093099 -0.170141 0.000000 0.000000 0.000000 1.884643 0.443212 2.836898 11.874876 -0.287306 -1.096185 1.682450 -8.174958 -6.417474 0.000000 0.000000 0.000000 1.386020 0.463495 2.612718 2.160421 -15.065587 -12.454962 -0.660838 0.519184 -2.064670 5.045520 -1.491723 -70.606869 -1.613972 -0.826608 -0.077763 0.000000 0.000000 0.000000 1.543009 0.222701 2.913545 2.046130 7.815564 18.491180 0.282413 3.600154 -2.157046 27.612069 6.479140 57.692982 0.658770 6.285301 0.508411 0.000000 0.000000 0.000000 
-0.050986 32.934227 0.392502 0.000000 0.000000 0.000000 -5.972384 4.342101 -0.443582 -19.805078 12.601150 16.243641 32.364759 0.685418 5.397222 -8.955410 -7.886288 -11.939449 -1.521941 0.520762 -1.278255 0.000000 0.000000 0.000000 -6.227774 5.998148 -0.347239 10.145024 -9.282389 3.469364 16.038963 -8.026786 -7.252411 -18.751028 -15.163020 6.795406 -6.477808 -0.237744 -0.383041 0.000000 0.000000 0.000000 -5.472851 4.785493 -0.659114 2.564916 0.149459 3.578632 2.547999 0.209959 2.839753 0.888769 -0.885082 -0.146858 0.000000 0.000000 0.000000 1.985407 0.318898 2.865501 11.527597 -0.028352 -0.944853 0.866641 -6.864488 -5.826349 0.000000 0.000000 0.000000 1.425081 0.345693 2.584658 2.183668 -15.157957 -12.581714 -0.853222 0.692685 -1.894337 5.456037 -1.044498 -70.933072 -1.592386 -0.669057 -0.075207 0.000000 0.000000 0.000000 1.630478 0.125503 2.944469 2.043624 7.689036 18.442756 0.092874 3.402041 -2.124000 26.838311 5.478333 57.433674 0.523983 5.430078 0.569479 0.000000 0.000000 0.000000 
